# xmcd
#
# Track frame offsets:
# 182
# 20177
# 38137
# 54335
# 68985
# 91380
# 107537
# 128327
# 150912
# 166210
#
# Disc length: 2565 seconds
#
#
# Revision: 0
# Processed by: cddbd v1.4PL0 Copyright (c) Steve Scherf et al.
# Submitted via: FreeRIP 2.00 
#
DISCID=710a030a
DTITLE=Carolyn Wonderland - Truck Stop Favorites Vol. 2
DYEAR=1994
DGENRE=Blues
TTITLE0=That Way
TTITLE1=Wastin My Time
TTITLE2=In Your Eyes
TTITLE3=All that I wanted
TTITLE4=she sings Amazing Grace
TTITLE5=Busy Getting Lazy
TTITLE6=Happy Shoes
TTITLE7=She Wants To Know
TTITLE8=Radio
TTITLE9=Time Will Tell
EXTD=And The Imperial Monkeys
EXTT0=
EXTT1=
EXTT2=
EXTT3=
EXTT4=
EXTT5=
EXTT6=
EXTT7=
EXTT8=
EXTT9=
PLAYORDER=
